HIERARCHY
ROOT Hips
{
	OFFSET -0.089718 121.760773 1.256875
	CHANNELS 6 Xposition Yposition Zposition Xrotation Yrotation Zrotation 
	JOINT Spine
	{
		OFFSET 0.071961 7.257324 -0.789679
		CHANNELS 3 Xrotation Yrotation Zrotation
		JOINT Spine1
		{
			OFFSET 0.000000 12.508743 -0.658066
			CHANNELS 3 Xrotation Yrotation Zrotation
			JOINT Spine1_split
			{
				OFFSET 0.000000 12.508743 -0.658066
				CHANNELS 3 Xrotation Yrotation Zrotation
				JOINT Spine2
				{
					OFFSET 0.000000 12.508743 -0.658066
					CHANNELS 3 Xrotation Yrotation Zrotation
					JOINT Neck
					{
						OFFSET 0.000000 14.033295 7.520357
						CHANNELS 3 Xrotation Yrotation Zrotation
						JOINT Head
						{
							OFFSET 0.000000 8.198502 5.703135
							CHANNELS 3 Xrotation Yrotation Zrotation
							JOINT HeadTop_End
							{
								OFFSET 0.000000 17.760834 13.332673
								CHANNELS 3 Xrotation Yrotation Zrotation
								End Site
								{
									OFFSET 0.000000 0.000000 0.000000
								}
							}
						}
					}
					JOINT LeftShoulder
					{
						OFFSET 6.292447 5.785309 -0.668987
						CHANNELS 3 Xrotation Yrotation Zrotation
						JOINT LeftShoulder_split
						{
							OFFSET 6.292447 5.785309 -0.668987
							CHANNELS 3 Xrotation Yrotation Zrotation
							JOINT LeftArm
							{
								OFFSET 13.906050 -6.096512 1.965051
								CHANNELS 3 Xrotation Yrotation Zrotation
								JOINT LeftForeArm
								{
									OFFSET 34.136707 -0.070145 0.483191
									CHANNELS 3 Xrotation Yrotation Zrotation
									JOINT LeftHand
									{
										OFFSET 40.956070 -0.000046 0.579759
										CHANNELS 3 Xrotation Yrotation Zrotation
										JOINT LeftHandThumb1
										{
											OFFSET 9.870941 -7.205917 9.687083
											CHANNELS 3 Xrotation Yrotation Zrotation
											JOINT LeftHandThumb2
											{
												OFFSET 1.819832 -1.059479 1.085292
												CHANNELS 3 Xrotation Yrotation Zrotation
												JOINT LeftHandThumb3
												{
													OFFSET 2.094803 -1.219498 1.249332
													CHANNELS 3 Xrotation Yrotation Zrotation
													JOINT LeftHandThumb4
													{
														OFFSET 4.803749 -2.796570 2.864868
														CHANNELS 3 Xrotation Yrotation Zrotation
														End Site
														{
															OFFSET 0.000000 0.000000 0.000000
														}
													}
												}
											}
										}
										JOINT LeftHandIndex1
										{
											OFFSET 18.323029 -0.939438 4.853191
											CHANNELS 3 Xrotation Yrotation Zrotation
											JOINT LeftHandIndex2
											{
												OFFSET 4.710793 -0.000031 0.066666
												CHANNELS 3 Xrotation Yrotation Zrotation
												JOINT LeftHandIndex3
												{
													OFFSET 2.876877 -0.226105 0.045824
													CHANNELS 3 Xrotation Yrotation Zrotation
													JOINT LeftHandIndex4
													{
														OFFSET 6.145302 -0.000046 0.087005
														CHANNELS 3 Xrotation Yrotation Zrotation
														End Site
														{
															OFFSET 0.000000 0.000000 0.000000
														}
													}
												}
											}
										}
										JOINT LeftHandMiddle1
										{
											OFFSET 18.011223 0.000015 0.254925
											CHANNELS 3 Xrotation Yrotation Zrotation
											JOINT LeftHandMiddle2
											{
												OFFSET 4.946175 -0.000015 0.070024
												CHANNELS 3 Xrotation Yrotation Zrotation
												JOINT LeftHandMiddle3
												{
													OFFSET 3.341888 0.000015 0.047322
													CHANNELS 3 Xrotation Yrotation Zrotation
													JOINT LeftHandMiddle4
													{
														OFFSET 4.461334 -0.000031 0.063172
														CHANNELS 3 Xrotation Yrotation Zrotation
														End Site
														{
															OFFSET 0.000000 0.000000 0.000000
														}
													}
												}
											}
										}
										JOINT LeftHandRing1
										{
											OFFSET 15.906670 -0.087616 -3.901815
											CHANNELS 3 Xrotation Yrotation Zrotation
											JOINT LeftHandRing2
											{
												OFFSET 3.526680 -0.000031 0.049965
												CHANNELS 3 Xrotation Yrotation Zrotation
												JOINT LeftHandRing3
												{
													OFFSET 2.960831 -0.000015 0.041910
													CHANNELS 3 Xrotation Yrotation Zrotation
													JOINT LeftHandRing4
													{
														OFFSET 4.926727 -0.000031 0.069761
														CHANNELS 3 Xrotation Yrotation Zrotation
														End Site
														{
															OFFSET 0.000000 0.000000 0.000000
														}
													}
												}
											}
										}
										JOINT LeftHandPinky1
										{
											OFFSET 12.886803 -0.806839 -6.620516
											CHANNELS 3 Xrotation Yrotation Zrotation
											JOINT LeftHandPinky2
											{
												OFFSET 3.326813 0.000000 0.047121
												CHANNELS 3 Xrotation Yrotation Zrotation
												JOINT LeftHandPinky3
												{
													OFFSET 3.014618 -0.000031 0.042702
													CHANNELS 3 Xrotation Yrotation Zrotation
													JOINT LeftHandPinky4
													{
														OFFSET 5.847153 0.000031 0.082745
														CHANNELS 3 Xrotation Yrotation Zrotation
														End Site
														{
															OFFSET 0.000000 0.000000 0.000000
														}
													}
												}
											}
										}
									}
								}
							}
						}
					}
					JOINT RightShoulder
					{
						OFFSET -6.292447 5.785309 -0.668987
						CHANNELS 3 Xrotation Yrotation Zrotation
						JOINT RightShoulder_split
						{
							OFFSET -6.292447 5.785309 -0.668987
							CHANNELS 3 Xrotation Yrotation Zrotation
							JOINT RightArm
							{
								OFFSET -13.906046 -6.096527 1.965051
								CHANNELS 3 Xrotation Yrotation Zrotation
								JOINT RightForeArm
								{
									OFFSET -34.136711 -0.070145 0.483195
									CHANNELS 3 Xrotation Yrotation Zrotation
									JOINT RightHand
									{
										OFFSET -40.956062 -0.000031 0.579796
										CHANNELS 3 Xrotation Yrotation Zrotation
										JOINT RightHandThumb1
										{
											OFFSET -9.870895 -7.205978 9.687082
											CHANNELS 3 Xrotation Yrotation Zrotation
											JOINT RightHandThumb2
											{
												OFFSET -1.819832 -1.059479 1.085295
												CHANNELS 3 Xrotation Yrotation Zrotation
												JOINT RightHandThumb3
												{
													OFFSET -2.094826 -1.219513 1.249285
													CHANNELS 3 Xrotation Yrotation Zrotation
													JOINT RightHandThumb4
													{
														OFFSET -4.803757 -2.796585 2.864836
														CHANNELS 3 Xrotation Yrotation Zrotation
														End Site
														{
															OFFSET 0.000000 0.000000 0.000000
														}
													}
												}
											}
										}
										JOINT RightHandIndex1
										{
											OFFSET -18.323013 -0.939499 4.853236
											CHANNELS 3 Xrotation Yrotation Zrotation
											JOINT RightHandIndex2
											{
												OFFSET -4.710800 -0.000031 0.066705
												CHANNELS 3 Xrotation Yrotation Zrotation
												JOINT RightHandIndex3
												{
													OFFSET -2.876869 -0.226089 0.045846
													CHANNELS 3 Xrotation Yrotation Zrotation
													JOINT RightHandIndex4
													{
														OFFSET -6.145317 0.000000 0.087043
														CHANNELS 3 Xrotation Yrotation Zrotation
														End Site
														{
															OFFSET 0.000000 0.000000 0.000000
														}
													}
												}
											}
										}
										JOINT RightHandMiddle1
										{
											OFFSET -18.011230 -0.000031 0.254973
											CHANNELS 3 Xrotation Yrotation Zrotation
											JOINT RightHandMiddle2
											{
												OFFSET -4.946175 0.000000 0.069982
												CHANNELS 3 Xrotation Yrotation Zrotation
												JOINT RightHandMiddle3
												{
													OFFSET -3.341881 0.000000 0.047287
													CHANNELS 3 Xrotation Yrotation Zrotation
													JOINT RightHandMiddle4
													{
														OFFSET -4.461334 -0.000031 0.063116
														CHANNELS 3 Xrotation Yrotation Zrotation
														End Site
														{
															OFFSET 0.000000 0.000000 0.000000
														}
													}
												}
											}
										}
										JOINT RightHandRing1
										{
											OFFSET -15.906685 -0.087631 -3.901773
											CHANNELS 3 Xrotation Yrotation Zrotation
											JOINT RightHandRing2
											{
												OFFSET -3.526680 -0.000046 0.049887
												CHANNELS 3 Xrotation Yrotation Zrotation
												JOINT RightHandRing3
												{
													OFFSET -2.960831 0.000015 0.041926
													CHANNELS 3 Xrotation Yrotation Zrotation
													JOINT RightHandRing4
													{
														OFFSET -4.926727 -0.000061 0.069777
														CHANNELS 3 Xrotation Yrotation Zrotation
														End Site
														{
															OFFSET 0.000000 0.000000 0.000000
														}
													}
												}
											}
										}
										JOINT RightHandPinky1
										{
											OFFSET -12.886818 -0.806839 -6.620485
											CHANNELS 3 Xrotation Yrotation Zrotation
											JOINT RightHandPinky2
											{
												OFFSET -3.326813 -0.000015 0.047130
												CHANNELS 3 Xrotation Yrotation Zrotation
												JOINT RightHandPinky3
												{
													OFFSET -3.014618 0.000000 0.042665
													CHANNELS 3 Xrotation Yrotation Zrotation
													JOINT RightHandPinky4
													{
														OFFSET -5.847153 -0.000031 0.082798
														CHANNELS 3 Xrotation Yrotation Zrotation
														End Site
														{
															OFFSET 0.000000 0.000000 0.000000
														}
													}
												}
											}
										}
									}
								}
							}
						}
					}
				}
			}
		}
	}
	JOINT LeftUpLeg
	{
		OFFSET 13.026871 -6.336296 -1.092769
		CHANNELS 3 Xrotation Yrotation Zrotation
		JOINT LeftLeg
		{
			OFFSET 0.531735 -46.096748 9.782727
			CHANNELS 3 Xrotation Yrotation Zrotation
			JOINT LeftFoot
			{
				OFFSET -0.516061 -53.427502 -12.948194
				CHANNELS 3 Xrotation Yrotation Zrotation
				JOINT LeftToeBase
				{
					OFFSET 0.192221 -14.009666 16.364061
					CHANNELS 3 Xrotation Yrotation Zrotation
					JOINT LeftToe_End
					{
						OFFSET -1.784717 -0.561736 9.474806
						CHANNELS 3 Xrotation Yrotation Zrotation
						End Site
						{
							OFFSET 0.000000 0.000000 0.000000
						}
					}
				}
			}
		}
	}
	JOINT RightUpLeg
	{
		OFFSET -12.882952 -6.336288 -1.092769
		CHANNELS 3 Xrotation Yrotation Zrotation
		JOINT RightLeg
		{
			OFFSET -0.517510 -46.096909 9.782776
			CHANNELS 3 Xrotation Yrotation Zrotation
			JOINT RightFoot
			{
				OFFSET 0.532756 -53.427311 -12.948288
				CHANNELS 3 Xrotation Yrotation Zrotation
				JOINT RightToeBase
				{
					OFFSET -0.192224 -14.009682 16.364050
					CHANNELS 3 Xrotation Yrotation Zrotation
					JOINT RightToe_End
					{
						OFFSET 1.784716 -0.561743 9.474806
						CHANNELS 3 Xrotation Yrotation Zrotation
						End Site
						{
							OFFSET 0.000000 0.000000 0.000000
						}
					}
				}
			}
		}
	}
}
MOTION
Frames: 4
Frame Time: 0.016667
-5.451138 106.744621 -3.149941 -16.082399 -38.787060 -7.128819 6.002988 2.017950 -0.642918 12.035805 3.214011 -1.555558 0.000000 0.000000 0.000000 12.035808 3.214022 -1.555561 0.808823 2.930031 5.847935 3.843913 16.036794 -7.029031 0.000000 -0.000000 -0.000000 -0.675794 6.367332 14.446057 0.000000 0.000000 0.000000 -28.826246 -36.251338 1.675570 12.545063 -28.252019 -8.471298 -1.582655 -7.908516 16.666208 5.778107 -2.639162 -12.153693 2.254712 6.708748 2.237720 -0.000162 0.000434 0.000685 0.000001 0.000000 -0.000001 -5.260082 -8.234054 -45.310604 -1.690857 -2.859818 -49.047889 0.059598 -0.103150 -4.492648 -0.000001 0.000000 -0.000000 -1.247724 -2.540685 -48.993968 -1.342207 -3.908966 -47.255511 -0.000004 0.000720 -0.000001 -0.000001 -0.000001 -0.000001 1.344516 6.778792 -53.821436 -0.593476 -3.665198 -49.990168 -0.000007 0.000920 0.000004 0.000000 0.000000 0.000000 5.485318 16.568589 -50.089899 -0.220951 -6.273164 -59.471406 0.000002 -0.001197 0.000002 -0.000000 -0.000001 -0.000000 0.346729 -1.487432 -4.134974 0.000000 0.000000 0.000000 -25.817784 27.415222 -3.499673 1.303114 30.741216 10.085465 -17.917068 20.793906 5.919732 18.141560 5.789528 31.686122 6.282035 -16.055289 -2.985996 -0.000566 0.000692 -0.000273 0.000001 -0.000002 -0.000001 -4.746550 8.373455 32.131973 -0.398664 0.874110 35.937409 0.059590 0.103157 4.492661 -0.000000 -0.000000 -0.000000 -1.489809 0.853153 35.887969 -0.354879 2.094291 34.174141 -0.000005 0.000557 0.000008 0.000000 -0.000001 -0.000000 3.410157 -8.380490 41.078595 -0.485548 3.757242 36.754187 -0.000019 -0.000926 -0.001153 0.000001 -0.000000 0.000001 7.366490 -17.571486 37.712391 -1.105291 8.247044 46.027330 -0.000002 0.000219 -0.000001 -0.000001 -0.000000 -0.000000 -25.581965 3.347096 12.663124 36.124905 -10.726115 1.611425 16.004644 -0.851159 -13.096680 -17.826700 0.234551 1.090420 0.000000 -0.000000 0.000000 5.121975 -18.318625 -17.008884 36.226900 -6.499550 -0.597356 -24.766312 -4.452578 15.723398 -11.738454 -3.077272 -1.215575 0.000000 -0.000002 -0.000000 
-8.237151 115.659325 -2.567238 -16.472955 -39.080737 -7.374206 5.398038 1.984041 -0.705468 10.847846 3.499699 -2.042201 0.000000 0.000000 0.000000 10.847843 3.499686 -2.042199 3.765079 2.490157 6.424213 6.751129 15.504519 -8.701755 0.000002 -0.000000 -0.000000 -1.740827 10.008585 19.418856 0.000000 0.000000 0.000000 -26.292578 -33.797128 5.523413 13.507477 -27.816690 -8.458773 -1.830484 -9.431328 16.749396 5.242250 -2.467555 -11.178434 2.252278 6.703968 2.238591 -0.000168 0.000435 0.000685 0.000001 -0.000000 -0.000000 -4.859742 -8.041419 -43.645138 -1.554861 -2.723455 -47.408258 0.059597 -0.103149 -4.492650 -0.000001 0.000002 0.000002 -1.147163 -2.413264 -47.355576 -1.233521 -3.774104 -45.622453 -0.000004 0.000720 -0.000001 -0.000000 0.000000 -0.000002 1.276460 6.857076 -52.179298 -0.537787 -3.585986 -48.360219 -0.000007 0.000920 0.000005 -0.000000 0.000001 0.000001 5.126449 16.582402 -48.362886 -0.208086 -6.237483 -57.839626 0.000002 -0.001200 0.000002 -0.000000 0.000002 0.000001 0.297388 -2.580772 -7.102705 0.000000 0.000000 0.000000 -25.044666 29.330574 -6.058228 4.376904 24.150384 8.764579 -18.685296 21.024927 10.543953 18.008654 5.182427 30.801165 6.305039 -16.101809 -2.987052 -0.000568 0.000692 -0.000273 -0.000001 -0.000003 -0.000001 -4.446863 8.103658 31.544559 -0.370115 0.826610 35.365258 0.059594 0.103159 4.492659 -0.000002 0.000000 0.000001 -1.470216 0.811326 35.315138 -0.334660 2.049750 33.615220 -0.000000 0.000558 0.000006 0.000002 0.000001 0.000002 3.244653 -8.313968 40.471395 -0.463948 3.715221 36.197677 -0.000024 -0.000926 -0.001156 -0.000001 -0.000001 0.000001 7.007037 -17.372351 37.012836 -1.080991 8.212825 45.464130 -0.000003 0.000219 -0.000001 -0.000001 0.000001 0.000000 -17.249228 6.950200 12.645329 21.200123 -12.131141 2.383325 30.496935 -3.111407 -14.424970 -12.360832 -0.116195 -0.170949 -0.000001 0.000001 -0.000000 13.093590 -19.031714 -13.043021 21.292305 -4.188113 -0.420799 -7.914312 -1.868517 12.997960 -28.662045 -1.153877 -4.150375 -0.000001 0.000000 -0.000000 
-10.289577 123.862907 -1.976782 -15.783510 -39.740585 -7.321559 5.023948 1.941119 -0.243799 10.148495 3.743865 -2.337036 0.000000 0.000000 0.000000 10.148494 3.743882 -2.337035 6.185545 2.219089 6.632936 8.363098 15.206680 -10.348296 0.000001 -0.000000 0.000000 -3.167069 13.780730 23.130449 0.000000 0.000000 0.000000 -25.016896 -29.505078 7.468131 12.239535 -29.434055 -8.233515 -2.248772 -10.494201 18.366659 4.586878 -2.291930 -10.020538 2.256246 6.710835 2.239904 -0.000164 0.000434 0.000681 -0.000001 0.000001 0.000000 -4.409979 -7.784793 -41.731182 -1.402778 -2.561101 -45.513502 0.059596 -0.103149 -4.492648 -0.000001 0.000000 0.000000 -1.038667 -2.280086 -45.458058 -1.111438 -3.612637 -43.712753 -0.000005 0.000722 -0.000001 -0.000000 0.000001 0.000000 1.196391 6.927226 -50.252222 -0.474901 -3.490155 -46.439228 -0.000008 0.000920 0.000004 0.000000 -0.000002 -0.000001 4.713266 16.568046 -46.321182 -0.194380 -6.195419 -55.920524 0.000003 -0.001194 0.000002 -0.000001 -0.000000 -0.000000 0.192152 -3.941866 -9.446237 0.000000 0.000000 0.000000 -25.222842 29.798684 -7.136442 5.341574 19.145681 7.442556 -19.184386 20.438550 15.767919 17.577065 4.486439 29.384891 6.248504 -15.962101 -2.979566 -0.000567 0.000690 -0.000273 -0.000001 -0.000004 0.000001 -4.114771 7.780245 30.697783 -0.329246 0.756333 34.525445 0.059592 0.103155 4.492663 0.000000 -0.000001 0.000001 -1.443445 0.753967 34.473539 -0.304375 1.980820 32.751713 -0.000003 0.000556 0.000006 -0.000000 -0.000002 -0.000002 3.069134 -8.248510 39.584416 -0.431285 3.649202 35.328416 -0.000016 -0.000924 -0.001155 0.000003 -0.000000 -0.000000 6.618641 -17.160686 36.012961 -1.044178 8.159695 44.597133 -0.000002 0.000219 -0.000002 -0.000001 0.000000 0.000000 -12.436297 8.772202 11.690185 12.890737 -17.150772 2.903794 37.744431 -4.047773 -12.947340 1.895218 -1.138895 -8.325324 -0.000006 -0.000003 0.000003 17.563389 -18.768071 -10.903380 6.974040 -1.334143 -1.321587 16.088731 2.303027 17.173174 -28.423052 1.884492 -6.915495 0.000000 -0.000001 -0.000000 
-11.145682 131.472672 -2.410989 -14.543940 -40.124151 -5.350608 4.995746 2.067580 -0.813209 10.072719 3.936686 -2.636163 0.000000 0.000000 0.000000 10.072716 3.936693 -2.636163 8.079799 2.146874 6.397280 8.432137 15.201843 -11.751662 0.000000 0.000000 -0.000000 -4.630810 17.333248 25.061656 0.000000 0.000000 0.000000 -24.804974 -23.723228 8.389988 8.472010 -33.024784 -8.305825 -3.397221 -10.960874 22.046727 3.815374 -2.124972 -8.696354 2.268194 6.732475 2.241511 -0.000166 0.000434 0.000684 0.000001 0.000000 0.000000 -3.926595 -7.459123 -39.612631 -1.239872 -2.374535 -43.403427 0.059599 -0.103149 -4.492650 -0.000001 0.000000 0.000001 -0.927356 -2.147604 -43.339910 -0.980357 -3.426205 -41.560441 -0.000005 0.000720 -0.000002 0.000002 -0.000000 0.000002 1.105932 6.981332 -48.072743 -0.407201 -3.378688 -44.257529 -0.000006 0.000920 0.000006 0.000002 -0.000001 0.000000 4.257553 16.514327 -43.996267 -0.180474 -6.147589 -53.745345 0.000002 -0.001194 0.000005 0.000001 0.000001 -0.000001 0.029637 -5.466256 -10.985163 0.000000 0.000000 0.000000 -25.967700 28.315388 -7.651038 3.823872 16.288389 6.312120 -19.923250 19.455657 19.530646 16.868546 3.732804 27.489985 6.117334 -15.648592 -2.963726 -0.000566 0.000690 -0.000272 0.000001 -0.000002 -0.000001 -3.763431 7.407219 29.629193 -0.278570 0.665673 33.451982 0.059589 0.103155 4.492663 0.000002 0.000000 0.000000 -1.411606 0.684202 33.397047 -0.265821 1.888989 31.607814 -0.000004 0.000557 0.000009 -0.000002 0.000001 -0.000001 2.887381 -8.181232 38.449867 -0.389281 3.560307 34.168458 -0.000021 -0.000925 -0.001154 0.000001 -0.000002 0.000000 6.212367 -16.934877 34.743881 -0.996351 8.088628 43.451058 -0.000001 0.000217 -0.000002 0.000002 -0.000001 0.000000 -9.937568 9.256476 9.108852 9.008707 -23.736360 2.473770 41.493228 -5.267717 -14.665907 2.116806 -1.242533 -9.204914 0.000001 -0.000003 0.000004 15.164746 -18.481261 -13.063949 4.635923 -1.024043 -2.368851 22.579055 3.193707 21.219195 -12.067411 1.268226 -7.723455 0.000000 -0.000001 0.000001 
